<?xml version="1.0" encoding="utf-8"?>
<!-- Generator: Adobe Illustrator 19.0.0, SVG Export Plug-In . SVG Version: 6.00 Build 0)  -->
<svg version="1.1" id="Capa_1" xmlns="http://www.w3.org/2000/svg" xmlns:xlink="http://www.w3.org/1999/xlink" x="0px" y="0px"
	 viewBox="0 276 612 241" style="enable-background:new 0 276 612 241;" xml:space="preserve">
<style type="text/css">
	.st0{fill:#FFFFFF;}
	.st1{clip-path:url(#SVGID_2_);fill:#FFFFFF;}
	.st2{clip-path:url(#SVGID_4_);fill:#FFFFFF;}
</style>
<g id="XMLID_2_">
	<g id="XMLID_9_">
		<path id="XMLID_38_" class="st0" d="M270.9,354.9c0,4.7-2.6,9.5-7.7,11.4c4.8,1.6,8.5,5.3,8.5,12.3c0,12.5-10,14.9-21,14.9
			c-6.9,0-13-0.5-18.1-1.5v-50.1c4.1-0.8,10.8-1.6,17.3-1.6C259.6,340.3,270.9,342.2,270.9,354.9 M244.5,370.8v12.5
			c1.7,0.2,3.7,0.4,5.9,0.4c5.3,0,9.1-0.9,9.1-6.3c0-5.7-4.1-6.6-9.4-6.6H244.5z M250.1,361.8c5.1,0,8.9-0.9,8.9-6.1
			c0-5.2-3.6-5.8-9.3-5.8c-1.7,0-3.6,0.1-5.2,0.3v11.5L250.1,361.8L250.1,361.8z"/>
		<path id="XMLID_35_" class="st0" d="M278.3,380.5c0-7.2,3.2-11.5,11.4-12.9c3.9-0.7,7.5-0.8,11.3-0.9c0-3.6-1.9-4.9-6.1-4.9
			c-4.8,0-10.3,0.6-14.3,1.1l-0.9-8.6c4.1-0.7,10-1.6,15.9-1.6c9,0,16.6,2.6,16.6,13.1v16.1c0,2.8-0.1,5.1-0.3,7.8
			c-4.8,2.9-10.8,3.9-17.8,3.9C282.8,393.5,278.3,389.2,278.3,380.5 M301,374.2c-2.4,0.2-5.2,0.3-7.4,0.8c-2.8,0.7-4,1.7-4,5.4
			c0,3.4,2,4.3,5.5,4.3c1.8,0,3.8-0.1,5.7-0.8c0.2-1.6,0.2-3.6,0.2-5.3L301,374.2L301,374.2z"/>
		<path id="XMLID_34_" class="st0" d="M331.8,393h-11.4v-28.7c0-2.8,0.1-5.1,0.3-7.8c4.8-2.8,11.1-3.9,17.6-3.9
			c14.7,0,16.4,6.3,16.4,15.2V393h-11.4v-24.3c0-4.8-0.9-6.8-6.4-6.8c-1.8,0-3.7,0.3-4.9,0.8c-0.2,1.6-0.2,3.6-0.2,5.3V393z"/>
		<path id="XMLID_33_" class="st0" d="M390.6,391.8c-3.6,1-8.1,1.7-13.7,1.7c-13.4,0-15.4-10.3-15.4-20.8c0-13,3.1-20.1,17.8-20.1
			c4.9,0,8.4,0.7,11.2,1.7l-0.9,8.4c-2.6-0.5-5-1.1-7.6-1.1c-8.1,0-9.1,2.6-9.1,11.1c0,8,0.4,11.5,9.2,11.5c2.6,0,4.8-0.5,7.4-1
			L390.6,391.8z"/>
		<path id="XMLID_30_" class="st0" d="M395.6,373c0-14.8,4.8-20.4,18-20.4s18,5.7,18,20.4c0,14.8-4.8,20.5-18,20.5
			S395.6,387.9,395.6,373 M420.1,373c0-8.7-1.3-11.1-6.5-11.1c-5.3,0-6.5,2.3-6.5,11.1c0,8.9,1.2,11.1,6.5,11.1
			C418.9,384.2,420.1,381.8,420.1,373"/>
		<path id="XMLID_27_" class="st0" d="M227.9,455.3l15.3-44.5c2.1-6,5-8.4,9.4-8.4c4.3,0,7.4,2.7,9.3,8.4l15,44.5h-13l-3.6-12H244
			l-3.4,12H227.9z M257.5,433.8l-5.5-18.5l-5.3,18.5H257.5z"/>
		<path id="XMLID_26_" class="st0" d="M319.5,402.4v40.4c0,2.7,1.2,4.2,4.1,4.2c1.2,0,2.2-0.1,3.5-0.5l1.1,8.5
			c-2.4,0.4-5.3,0.8-7.7,0.8c-8.8,0-12.5-3.9-12.5-11.7v-41.7C308,402.4,319.5,402.4,319.5,402.4z"/>
		<path id="XMLID_22_" class="st0" d="M331,442.7c0-7.2,3.2-11.6,11.4-13c3.9-0.6,7.6-0.8,11.4-0.9c0-3.6-1.8-5-6.1-5
			c-4.9,0-10.4,0.6-14.4,1.1l-0.9-8.7c4.1-0.7,10.1-1.6,16-1.6c9.1,0,16.7,2.6,16.7,13.2V444c0,2.8-0.1,5.2-0.3,7.9
			c-4.8,2.9-10.9,3.9-17.9,3.9C335.5,455.8,331,451.5,331,442.7 M353.8,436.4c-2.5,0.2-5.2,0.3-7.5,0.8c-2.8,0.7-4,1.7-4,5.4
			c0,3.4,2,4.3,5.6,4.3c1.8,0,3.9-0.1,5.7-0.8c0.2-1.6,0.2-3.6,0.2-5.4L353.8,436.4L353.8,436.4z M352.8,410.4h-8.7l5.9-10h11.4
			L352.8,410.4z"/>
		<path id="XMLID_21_" class="st0" d="M385.3,455.3h-11.4v-28.8c0-2.8,0.1-5.2,0.3-7.9c4.8-2.8,11.2-3.9,17.7-3.9
			c14.8,0,16.5,6.3,16.5,15.3v25.3h-11.5v-24.4c0-4.9-0.9-6.8-6.5-6.9c-1.8,0-3.7,0.3-5,0.8c-0.2,1.6-0.2,3.6-0.2,5.4v25.1H385.3z"
			/>
		<path id="XMLID_18_" class="st0" d="M443.9,405.6c0-4.1,1.5-5.7,6.2-5.7c4.6,0,6.2,1.6,6.2,5.7s-1.5,5.7-6.2,5.7
			C445.4,411.4,443.9,409.8,443.9,405.6 M444.3,414.7h11.6v40.6h-11.6V414.7z"/>
		<path id="XMLID_15_" class="st0" d="M488.3,402.4h11.5V444c0,2.8-0.1,5.2-0.3,7.9c-4.5,2.8-10.9,3.9-16.5,3.9
			c-13.6,0-19.3-4.8-19.3-20.6c0-15.6,5.7-20.6,18.1-20.6c2,0,4.4,0.2,6.5,0.6L488.3,402.4L488.3,402.4z M483.9,423.9
			c-8.4,0-8.7,4.9-8.7,11.3c0,5.7,0.2,11.4,7.7,11.4c1.8,0,3.8-0.3,5.1-0.8c0.2-1.6,0.2-3.6,0.2-5.4v-16
			C487,424.1,485.3,423.9,483.9,423.9"/>
		<path id="XMLID_12_" class="st0" d="M507.1,442.7c0-7.2,3.2-11.6,11.4-13c4-0.6,7.6-0.8,11.4-0.9c0-3.6-1.9-5-6.1-5
			c-4.9,0-10.4,0.6-14.4,1.1l-0.9-8.7c4.1-0.7,10.1-1.6,16-1.6c9.1,0,16.7,2.6,16.7,13.2V444c0,2.8-0.1,5.2-0.3,7.9
			c-4.8,2.9-10.9,3.9-17.9,3.9C511.6,455.8,507.1,451.5,507.1,442.7 M529.9,436.4c-2.4,0.2-5.2,0.3-7.5,0.8c-2.9,0.7-4,1.7-4,5.4
			c0,3.4,2,4.3,5.6,4.3c1.8,0,3.9-0.1,5.7-0.8c0.2-1.6,0.2-3.6,0.2-5.4V436.4z"/>
		<path id="XMLID_11_" class="st0" d="M428,402.4v12.2h10v9.5h-10v18.6c0,2.7,1.2,4.2,4.1,4.2c1.2,0,2.4,0,3.7-0.2l0.9,8.2
			c-2.4,0.4-5.3,0.8-7.7,0.8c-8.7,0-12.5-3.9-12.5-11.7v-41.7L428,402.4L428,402.4z"/>
		<path id="XMLID_10_" class="st0" d="M291.8,402.4v12.2h10v9.5h-10v18.6c0,2.7,1.2,4.2,4.1,4.2c1.2,0,2.4,0,3.7-0.2l0.9,8.2
			c-2.4,0.4-5.3,0.8-7.7,0.8c-8.8,0-12.5-3.9-12.5-11.7v-41.7L291.8,402.4L291.8,402.4z"/>
	</g>
	<g id="XMLID_6_">
		<g>
			<defs>
				<path id="SVGID_1_" d="M74.7,340.1c-2.1,0-3.8,1.7-3.8,3.8v62.2c0,30.1,19.4,49.8,49.5,49.8H146c2.1,0,3.8-1.7,3.8-3.8v-30.6
					c0-2.1-1.7-3.8-3.8-3.8h-16.4c-2.1,0-11.9-0.3-11.9-11.9v-61.9c0-2.1-1.7-3.8-3.8-3.8H74.7z"/>
			</defs>
			<use xlink:href="#SVGID_1_"  style="overflow:visible;fill:#FFFFFF;"/>
			<clipPath id="SVGID_2_">
				<use xlink:href="#SVGID_1_"  style="overflow:visible;"/>
			</clipPath>
			<polygon id="XMLID_8_" class="st1" points="73.6,325.5 171.1,344.1 147,470.3 49.6,451.8 			"/>
		</g>
	</g>
	<g id="XMLID_3_">
		<g>
			<defs>
				<path id="SVGID_3_" d="M127.2,356.8c-2.1,0-3.8,1.7-3.8,3.8v35.1c0,2.1,1.7,3.8,3.8,3.8h18.7c2.1,0,9.5,0.3,9.5,11.9V452
					c0,2.1,1.7,3.8,3.8,3.8h39.2c2.1,0,3.8-1.7,3.8-3.8v-45.5c0-30.1-19.4-49.8-49.5-49.8L127.2,356.8L127.2,356.8z"/>
			</defs>
			<use xlink:href="#SVGID_3_"  style="overflow:visible;fill:#FFFFFF;"/>
			<clipPath id="SVGID_4_">
				<use xlink:href="#SVGID_3_"  style="overflow:visible;"/>
			</clipPath>
			<polygon id="XMLID_5_" class="st2" points="189.7,484.6 87.2,440.1 135.9,328 238.4,372.5 			"/>
		</g>
	</g>
</g>
</svg>
